<mxfile host="app.diagrams.net" modified="2021-04-20T07:41:10.592Z" agent="5.0 (Macintosh; Intel Mac OS X 11_2_3) AppleWebKit/537.36 (KHTML, like Gecko) Chrome/89.0.4389.128 Safari/537.36" etag="yBbKVqeHmoha21cuap60" version="14.6.3" type="github" pages="2">
  <diagram name="领域模型" id="9f46799a-70d6-7492-0946-bef42562c5a5">
    <mxGraphModel dx="1426" dy="769" grid="1" gridSize="10" guides="1" tooltips="1" connect="1" arrows="1" fold="1" page="1" pageScale="1" pageWidth="1100" pageHeight="850" background="#ffffff" math="0" shadow="0">
      <root>
        <mxCell id="0" />
        <mxCell id="1" parent="0" />
        <mxCell id="GsSLp2DtThcRFbA4R3xw-9" style="edgeStyle=orthogonalEdgeStyle;rounded=0;orthogonalLoop=1;jettySize=auto;html=1;exitX=1;exitY=0.5;exitDx=0;exitDy=0;entryX=0;entryY=0;entryDx=0;entryDy=15;entryPerimeter=0;endArrow=openThin;endFill=0;" edge="1" parent="1" source="GsSLp2DtThcRFbA4R3xw-1" target="GsSLp2DtThcRFbA4R3xw-2">
          <mxGeometry relative="1" as="geometry" />
        </mxCell>
        <mxCell id="GsSLp2DtThcRFbA4R3xw-10" value="1:*" style="edgeLabel;html=1;align=center;verticalAlign=middle;resizable=0;points=[];" vertex="1" connectable="0" parent="GsSLp2DtThcRFbA4R3xw-9">
          <mxGeometry x="-0.2" relative="1" as="geometry">
            <mxPoint as="offset" />
          </mxGeometry>
        </mxCell>
        <mxCell id="GsSLp2DtThcRFbA4R3xw-11" style="edgeStyle=orthogonalEdgeStyle;rounded=0;orthogonalLoop=1;jettySize=auto;html=1;entryX=1;entryY=0.5;entryDx=0;entryDy=0;endArrow=openThin;endFill=0;" edge="1" parent="1" source="GsSLp2DtThcRFbA4R3xw-1" target="GsSLp2DtThcRFbA4R3xw-4">
          <mxGeometry relative="1" as="geometry" />
        </mxCell>
        <mxCell id="GsSLp2DtThcRFbA4R3xw-12" value="1:*" style="edgeLabel;html=1;align=center;verticalAlign=middle;resizable=0;points=[];" vertex="1" connectable="0" parent="GsSLp2DtThcRFbA4R3xw-11">
          <mxGeometry x="0.48" relative="1" as="geometry">
            <mxPoint as="offset" />
          </mxGeometry>
        </mxCell>
        <mxCell id="GsSLp2DtThcRFbA4R3xw-16" style="edgeStyle=orthogonalEdgeStyle;rounded=0;orthogonalLoop=1;jettySize=auto;html=1;entryX=1;entryY=0.5;entryDx=0;entryDy=0;endArrow=open;endFill=0;" edge="1" parent="1" source="GsSLp2DtThcRFbA4R3xw-1" target="GsSLp2DtThcRFbA4R3xw-13">
          <mxGeometry relative="1" as="geometry">
            <Array as="points">
              <mxPoint x="480" y="255" />
              <mxPoint x="480" y="100" />
            </Array>
          </mxGeometry>
        </mxCell>
        <mxCell id="GsSLp2DtThcRFbA4R3xw-17" value="1:*" style="edgeLabel;html=1;align=center;verticalAlign=middle;resizable=0;points=[];" vertex="1" connectable="0" parent="GsSLp2DtThcRFbA4R3xw-16">
          <mxGeometry x="0.4033" relative="1" as="geometry">
            <mxPoint as="offset" />
          </mxGeometry>
        </mxCell>
        <mxCell id="GsSLp2DtThcRFbA4R3xw-1" value="User" style="shape=module;align=left;spacingLeft=20;align=center;verticalAlign=top;" vertex="1" parent="1">
          <mxGeometry x="550" y="230" width="100" height="50" as="geometry" />
        </mxCell>
        <mxCell id="GsSLp2DtThcRFbA4R3xw-8" value="1:*" style="edgeStyle=orthogonalEdgeStyle;rounded=0;orthogonalLoop=1;jettySize=auto;html=1;entryX=0.5;entryY=0;entryDx=0;entryDy=0;endArrow=openThin;endFill=0;" edge="1" parent="1" source="GsSLp2DtThcRFbA4R3xw-2" target="GsSLp2DtThcRFbA4R3xw-3">
          <mxGeometry relative="1" as="geometry" />
        </mxCell>
        <mxCell id="GsSLp2DtThcRFbA4R3xw-2" value="Product" style="shape=module;align=left;spacingLeft=20;align=center;verticalAlign=top;" vertex="1" parent="1">
          <mxGeometry x="770" y="240" width="100" height="50" as="geometry" />
        </mxCell>
        <mxCell id="GsSLp2DtThcRFbA4R3xw-3" value="Page" style="shape=module;align=left;spacingLeft=20;align=center;verticalAlign=top;" vertex="1" parent="1">
          <mxGeometry x="770" y="350" width="100" height="50" as="geometry" />
        </mxCell>
        <mxCell id="GsSLp2DtThcRFbA4R3xw-4" value="Template" style="shape=module;align=left;spacingLeft=20;align=center;verticalAlign=top;" vertex="1" parent="1">
          <mxGeometry x="350" y="230" width="100" height="50" as="geometry" />
        </mxCell>
        <mxCell id="GsSLp2DtThcRFbA4R3xw-6" value="1:*" style="edgeStyle=orthogonalEdgeStyle;rounded=0;orthogonalLoop=1;jettySize=auto;html=1;exitX=0.5;exitY=0;exitDx=0;exitDy=0;entryX=0.5;entryY=1;entryDx=0;entryDy=0;endArrow=openThin;endFill=0;" edge="1" parent="1" source="GsSLp2DtThcRFbA4R3xw-5" target="GsSLp2DtThcRFbA4R3xw-4">
          <mxGeometry relative="1" as="geometry" />
        </mxCell>
        <mxCell id="GsSLp2DtThcRFbA4R3xw-5" value="TemplateGenre" style="shape=module;align=left;spacingLeft=20;align=center;verticalAlign=top;" vertex="1" parent="1">
          <mxGeometry x="350" y="350" width="100" height="50" as="geometry" />
        </mxCell>
        <mxCell id="GsSLp2DtThcRFbA4R3xw-14" style="edgeStyle=orthogonalEdgeStyle;rounded=0;orthogonalLoop=1;jettySize=auto;html=1;entryX=0.5;entryY=0;entryDx=0;entryDy=0;endArrow=diamondThin;endFill=0;" edge="1" parent="1" source="GsSLp2DtThcRFbA4R3xw-13" target="GsSLp2DtThcRFbA4R3xw-4">
          <mxGeometry relative="1" as="geometry" />
        </mxCell>
        <mxCell id="GsSLp2DtThcRFbA4R3xw-13" value="Block" style="shape=module;align=left;spacingLeft=20;align=center;verticalAlign=top;" vertex="1" parent="1">
          <mxGeometry x="350" y="80" width="100" height="40" as="geometry" />
        </mxCell>
        <mxCell id="GsSLp2DtThcRFbA4R3xw-19" value="1:*" style="edgeStyle=orthogonalEdgeStyle;rounded=0;orthogonalLoop=1;jettySize=auto;html=1;entryX=1;entryY=0.5;entryDx=0;entryDy=0;endArrow=openThin;endFill=0;" edge="1" parent="1" source="GsSLp2DtThcRFbA4R3xw-18" target="GsSLp2DtThcRFbA4R3xw-13">
          <mxGeometry relative="1" as="geometry" />
        </mxCell>
        <mxCell id="GsSLp2DtThcRFbA4R3xw-18" value="BlockGenre" style="shape=module;align=left;spacingLeft=20;align=center;verticalAlign=top;" vertex="1" parent="1">
          <mxGeometry x="560" y="75" width="100" height="50" as="geometry" />
        </mxCell>
      </root>
    </mxGraphModel>
  </diagram>
  <diagram id="-YNd0W0oTM8WeW1mqgYb" name="业务流程">
    <mxGraphModel dx="1426" dy="769" grid="1" gridSize="10" guides="1" tooltips="1" connect="1" arrows="1" fold="1" page="1" pageScale="1" pageWidth="827" pageHeight="1169" math="0" shadow="0">
      <root>
        <mxCell id="yXgGWNLphn4EvVKS2Y_f-0" />
        <mxCell id="yXgGWNLphn4EvVKS2Y_f-1" parent="yXgGWNLphn4EvVKS2Y_f-0" />
      </root>
    </mxGraphModel>
  </diagram>
</mxfile>
